<?xml version="1.0" standalone="no"?>
<!DOCTYPE svg PUBLIC "-//W3C//DTD SVG 20010904//EN"
 "http://www.w3.org/TR/2001/REC-SVG-20010904/DTD/svg10.dtd">
<svg version="1.0" xmlns="http://www.w3.org/2000/svg"
 width="260.000000pt" height="260.000000pt" viewBox="0 0 260.000000 260.000000"
 preserveAspectRatio="xMidYMid meet">
<metadata>
Created by potrace 1.11, written by Peter Selinger 2001-2013
</metadata>
<g transform="translate(0.000000,260.000000) scale(0.100000,-0.100000)"
fill="#000000" stroke="none">
<path d="M0 1910 l0 -690 75 0 75 0 2 -272 3 -273 86 100 c71 82 190 235 324
419 19 26 23 27 103 24 l83 -3 -72 -105 c-83 -121 -172 -237 -281 -367 l-77
-91 88 -91 c144 -146 288 -349 360 -508 l24 -53 64 0 63 0 0 599 c0 411 3 602
11 606 5 4 71 12 145 18 284 23 441 -39 506 -201 19 -47 23 -76 23 -167 0
-100 -3 -115 -28 -166 -26 -53 -90 -124 -146 -160 l-25 -16 48 -82 c49 -85
188 -360 206 -406 l10 -25 230 0 230 0 0 540 0 540 -155 0 -155 0 0 70 0 70
390 0 390 0 0 620 0 620 -160 0 -160 0 0 -540 0 -540 -75 0 -75 0 0 540 0 540
-155 0 -155 0 0 70 0 70 -90 0 -90 0 0 -610 0 -610 -77 0 -78 0 -59 148 c-90
225 -225 532 -304 687 l-71 140 0 -487 -1 -488 -65 0 -65 0 0 610 0 610 -140
0 -140 0 0 -70 0 -70 -110 0 -110 0 0 -470 0 -470 110 0 110 0 0 -70 0 -70
-295 0 -295 0 0 70 0 70 110 0 110 0 0 470 0 470 -110 0 -110 0 0 70 c0 68 -1
70 -25 70 l-25 0 0 -690z"/>
<path d="M1210 2318 c77 -156 171 -364 211 -463 39 -99 73 -182 75 -184 2 -2
4 206 4 462 l0 467 -214 0 -215 0 139 -282z"/>
<path d="M1070 848 l0 -241 112 6 c95 6 121 11 168 34 81 41 105 89 105 208
-1 102 -13 133 -69 183 -47 41 -91 52 -213 52 l-103 0 0 -242z"/>
<path d="M2280 540 l0 -540 160 0 160 0 0 540 0 540 -160 0 -160 0 0 -540z"/>
<path d="M150 290 l0 -290 235 0 c129 0 235 2 235 5 0 16 -124 215 -181 291
-66 88 -259 284 -279 284 -6 0 -10 -108 -10 -290z"/>
<path d="M1070 240 l0 -240 220 0 c121 0 220 2 220 4 0 2 -20 50 -45 107 -52
118 -117 243 -166 317 l-34 52 -97 0 -98 0 0 -240z"/>
</g>
</svg>
